# xmcd CD database file
#
# Track frame offsets:
#	150
#	19302
#	37860
#	59043
#	81363
#	103796
#	132806
#	152538
#	175379
#	196012
#	216966
#
# Disc length: 3127 seconds
#
# Revision: 0
# Processed by: cddbd v1.5.1PL2 Copyright (c) Steve Scherf et al.
# Submitted via: Feurio! 1.68 - http://www.feurio.com
#
DISCID=930c350b
DTITLE=Floetry - Flo'Ology
DYEAR=1900
DGENRE=
TTITLE0=Blessed to Have
TTITLE1=SupraStar
TTITLE2=??? - Closer
TTITLE3=My Apology
TTITLE4=Let Me In
TTITLE5=Lay Down
TTITLE6=Feelings
TTITLE7=Sometimes U Make Me Shine
TTITLE8=I'll Die
TTITLE9=Imagination
TTITLE10=I Want U
EXTD=
EXTT0=
EXTT1=
EXTT2=
EXTT3=
EXTT4=
EXTT5=
EXTT6=
EXTT7=
EXTT8=
EXTT9=
EXTT10=
PLAYORDER=
